# This file uses centimeters as units for non-parametric coordinates.

mtllib ../resources/cenaPaintball.mtl
g default
v 1.519055 -0.065899 12.232447
v 1.516272 -0.065899 13.099663
v 1.519055 9.256725 12.232447
v 1.516272 9.256725 13.099663
v 12.142455 9.256725 12.266544
v 12.139671 9.256725 13.133760
v 12.142455 -0.065899 12.266544
v 12.139671 -0.065899 13.133760
v 1.510747 -0.065899 21.732662
v 2.254768 -0.065899 21.732662
v 1.510747 5.142246 21.732662
v 2.254768 5.142246 21.732662
v 1.510747 5.142246 13.052418
v 2.254768 5.142246 13.052418
v 1.510747 -0.065899 13.052418
v 2.254768 -0.065899 13.052418
vt -0.168119 -1.629358
vt 1.168119 -1.629358
vt -0.168119 -0.293119
vt 1.168119 -0.293119
vt -0.168119 1.043119
vt 1.168119 1.043119
vt -0.168119 2.379358
vt 1.168119 2.379358
vt 2.504358 -1.629358
vt 2.504358 -0.293119
vt -1.504358 -1.629358
vt -1.504358 -0.293119
vt -0.168119 -1.629358
vt 1.168119 -1.629358
vt -0.168119 -0.293119
vt 1.168119 -0.293119
vt -0.168119 1.043119
vt 1.168119 1.043119
vt 2.504358 -1.629358
vt 2.504358 -0.293119
vt -1.504358 -1.629358
vt -1.504358 -0.293119
vn -0.999995 0.000000 -0.003210
vn -0.999995 0.000000 -0.003210
vn -0.999995 0.000000 -0.003210
vn -0.999995 0.000000 -0.003210
vn 0.000000 1.000000 0.000000
vn 0.000000 1.000000 0.000000
vn 0.000000 1.000000 0.000000
vn 0.000000 1.000000 0.000001
vn 0.999995 0.000000 0.003210
vn 0.999995 0.000000 0.003210
vn 0.999995 0.000000 0.003210
vn 0.999995 0.000000 0.003210
vn -0.003210 0.000000 0.999995
vn -0.003210 0.000000 0.999995
vn -0.003210 0.000000 0.999995
vn -0.003210 0.000000 0.999995
vn 0.003210 0.000000 -0.999995
vn 0.003210 0.000000 -0.999995
vn 0.003210 0.000000 -0.999995
vn 0.003210 0.000000 -0.999995
vn 0.000000 0.000000 1.000000
vn 0.000000 0.000000 1.000000
vn 0.000000 0.000000 1.000000
vn 0.000000 0.000000 1.000000
vn 0.000000 1.000000 0.000000
vn 0.000000 1.000000 0.000000
vn 0.000000 1.000000 0.000000
vn 0.000000 1.000000 0.000000
vn 1.000000 0.000000 0.000000
vn 1.000000 0.000000 0.000000
vn 1.000000 0.000000 0.000000
vn 1.000000 0.000000 0.000000
vn -1.000000 0.000000 0.000000
vn -1.000000 0.000000 0.000000
vn -1.000000 0.000000 0.000000
vn -1.000000 0.000000 0.000000
s 1
g prd_2 prd_2
usemtl phong6SG
f 1/1/1 2/2/2 3/3/3
f 3/3/3 2/2/2 4/4/4
s 2
f 3/3/5 4/4/6 5/5/7
f 5/5/7 4/4/6 6/6/8
s 3
f 5/5/9 6/6/10 7/7/11
f 7/7/11 6/6/10 8/8/12
s 4
f 2/2/13 8/9/14 4/4/15
f 4/4/15 8/9/14 6/10/16
s 5
f 7/11/17 1/1/18 5/12/19
f 5/12/19 1/1/18 3/3/20
s 6
f 9/13/21 10/14/22 11/15/23
f 11/15/23 10/14/22 12/16/24
s 7
f 11/15/25 12/16/26 13/17/27
f 13/17/27 12/16/26 14/18/28
s 8
f 10/14/29 16/19/30 12/16/31
f 12/16/31 16/19/30 14/20/32
s 9
f 15/21/33 9/13/34 13/22/35
f 13/22/35 9/13/34 11/15/36
g default
v 10.124286 -0.076488 23.822380
v 9.709411 -0.076488 29.122610
v 10.124286 2.738099 23.822380
v 9.709411 2.738099 29.122610
v 13.242068 2.738099 24.066423
v 12.827193 2.738099 29.366653
v 13.242068 -0.076488 24.066423
v 12.827193 -0.076488 29.366653
vt -0.261086 -1.908257
vt 1.261086 -1.908257
vt -0.261086 -0.386086
vt 1.261086 -0.386086
vt -0.261086 1.136086
vt 1.261086 1.136086
vt -0.261086 2.658257
vt 1.261086 2.658257
vt 2.783257 -1.908257
vt 2.783257 -0.386086
vt -1.783257 -1.908257
vt -1.783257 -0.386086
vn -0.996951 0.000000 -0.078036
vn -0.996951 0.000000 -0.078036
vn -0.996951 0.000000 -0.078036
vn -0.996951 0.000000 -0.078036
vn 0.000000 1.000000 0.000000
vn 0.000000 1.000000 0.000000
vn 0.000000 1.000000 0.000000
vn 0.000000 1.000000 0.000000
vn 0.996951 0.000000 0.078036
vn 0.996951 0.000000 0.078036
vn 0.996951 0.000000 0.078036
vn 0.996951 0.000000 0.078036
vn -0.078037 0.000000 0.996951
vn -0.078036 0.000000 0.996951
vn -0.078036 0.000000 0.996951
vn -0.078035 0.000000 0.996951
vn 0.078037 0.000000 -0.996951
vn 0.078036 0.000000 -0.996951
vn 0.078036 0.000000 -0.996951
vn 0.078035 0.000000 -0.996951
s 1
g cx_1 cx polySurface23
usemtl phong3SG
f 17/23/37 18/24/38 19/25/39
f 19/25/39 18/24/38 20/26/40
s 2
f 19/25/41 20/26/42 21/27/43
f 21/27/43 20/26/42 22/28/44
s 3
f 21/27/45 22/28/46 23/29/47
f 23/29/47 22/28/46 24/30/48
s 4
f 18/24/49 24/31/50 20/26/51
f 20/26/51 24/31/50 22/32/52
s 5
f 23/33/53 17/23/54 21/34/55
f 21/34/55 17/23/54 19/25/56
g default
v 30.313475 -0.076488 -16.101242
v 29.898600 -0.076488 -10.801011
v 30.313475 2.738099 -16.101242
v 29.898600 2.738099 -10.801011
v 33.431255 2.738099 -15.857198
v 33.016384 2.738099 -10.556967
v 33.431255 -0.076488 -15.857198
v 33.016384 -0.076488 -10.556967
vt -0.248853 -1.871560
vt 1.248853 -1.871560
vt -0.248853 -0.373853
vt 1.248853 -0.373853
vt -0.248853 1.123853
vt 1.248853 1.123853
vt -0.248853 2.621560
vt 1.248853 2.621560
vt 2.746560 -1.871560
vt 2.746560 -0.373853
vt -1.746560 -1.871560
vt -1.746560 -0.373853
vn -0.996951 0.000000 -0.078036
vn -0.996951 0.000000 -0.078036
vn -0.996951 0.000000 -0.078036
vn -0.996951 0.000000 -0.078036
vn 0.000000 1.000000 0.000000
vn 0.000000 1.000000 0.000000
vn 0.000000 1.000000 0.000000
vn 0.000000 1.000000 0.000000
vn 0.996951 0.000000 0.078035
vn 0.996951 0.000000 0.078035
vn 0.996951 0.000000 0.078035
vn 0.996951 0.000000 0.078035
vn -0.078036 0.000000 0.996951
vn -0.078036 0.000000 0.996951
vn -0.078036 0.000000 0.996951
vn -0.078036 0.000000 0.996951
vn 0.078036 0.000000 -0.996951
vn 0.078036 0.000000 -0.996951
vn 0.078036 0.000000 -0.996951
vn 0.078036 0.000000 -0.996951
s 1
g polySurface23 cx_2 cx1
usemtl phong3SG
f 25/35/57 26/36/58 27/37/59
f 27/37/59 26/36/58 28/38/60
s 2
f 27/37/61 28/38/62 29/39/63
f 29/39/63 28/38/62 30/40/64
s 3
f 29/39/65 30/40/66 31/41/67
f 31/41/67 30/40/66 32/42/68
s 4
f 26/36/69 32/43/70 28/38/71
f 28/38/71 32/43/70 30/44/72
s 5
f 31/45/73 25/35/74 29/46/75
f 29/46/75 25/35/74 27/37/76
g default
v -7.624003 -0.076488 -32.080463
v -8.038877 -0.076488 -26.780233
v -7.624003 2.738099 -32.080463
v -8.038877 2.738099 -26.780233
v -4.506221 2.738099 -31.836420
v -4.921095 2.738099 -26.536190
v -4.506221 -0.076488 -31.836420
v -4.921095 -0.076488 -26.536190
vt -0.243960 -1.856881
vt 1.243960 -1.856881
vt 1.243960 -0.368960
vt -0.243960 -0.368960
vt 1.243960 1.118960
vt -0.243960 1.118960
vt 1.243960 2.606881
vt -0.243960 2.606881
vt 2.731881 -1.856881
vt 2.731881 -0.368960
vt -1.731881 -1.856881
vt -1.731881 -0.368960
vn -0.996951 0.000000 -0.078036
vn -0.996951 0.000000 -0.078036
vn -0.996951 0.000000 -0.078036
vn -0.996951 0.000000 -0.078036
vn 0.000000 1.000000 0.000000
vn 0.000000 1.000000 0.000000
vn 0.000000 1.000000 0.000000
vn 0.000000 1.000000 0.000000
vn 0.996951 0.000000 0.078036
vn 0.996951 0.000000 0.078036
vn 0.996951 0.000000 0.078036
vn 0.996951 0.000000 0.078036
vn -0.078036 0.000000 0.996951
vn -0.078036 0.000000 0.996951
vn -0.078036 0.000000 0.996951
vn -0.078036 0.000000 0.996951
vn 0.078036 0.000000 -0.996951
vn 0.078036 0.000000 -0.996951
vn 0.078036 0.000000 -0.996951
vn 0.078036 0.000000 -0.996951
s off
g polySurface23 cx_3 cx_2
usemtl phong3SG
f 33/47/77 34/48/78 36/49/79 35/50/80
f 35/50/81 36/49/82 38/51/83 37/52/84
f 37/52/85 38/51/86 40/53/87 39/54/88
f 34/48/89 40/55/90 38/56/91 36/49/92
f 39/57/93 33/47/94 35/50/95 37/58/96
g default
v -27.696663 -0.076488 20.141937
v -28.111538 -0.076488 25.442167
v -27.696663 2.738099 20.141937
v -28.111538 2.738099 25.442167
v -24.578880 2.738099 20.385981
v -24.993755 2.738099 25.686211
v -24.578880 -0.076488 20.385981
v -24.993755 -0.076488 25.686211
vt -0.275560 -1.951679
vt 1.275560 -1.951679
vt -0.275560 -0.400560
vt 1.275560 -0.400560
vt -0.275560 1.150560
vt 1.275560 1.150560
vt -0.275560 2.701679
vt 1.275560 2.701679
vt 2.826679 -1.951679
vt 2.826679 -0.400560
vt -1.826679 -1.951679
vt -1.826679 -0.400560
vn -0.996951 0.000000 -0.078036
vn -0.996951 0.000000 -0.078036
vn -0.996951 0.000000 -0.078036
vn -0.996951 0.000000 -0.078036
vn 0.000000 1.000000 0.000000
vn 0.000000 1.000000 0.000000
vn 0.000000 1.000000 0.000000
vn 0.000000 1.000000 0.000000
vn 0.996951 0.000000 0.078036
vn 0.996951 0.000000 0.078036
vn 0.996951 0.000000 0.078036
vn 0.996951 0.000000 0.078036
vn -0.078037 0.000000 0.996951
vn -0.078036 0.000000 0.996951
vn -0.078036 0.000000 0.996951
vn -0.078035 0.000000 0.996951
vn 0.078037 0.000000 -0.996951
vn 0.078036 0.000000 -0.996951
vn 0.078036 0.000000 -0.996951
vn 0.078035 0.000000 -0.996951
s 1
g polySurface23 cx_4 cx_3
usemtl phong3SG
f 41/59/97 42/60/98 43/61/99
f 43/61/99 42/60/98 44/62/100
s 2
f 43/61/101 44/62/102 45/63/103
f 45/63/103 44/62/102 46/64/104
s 3
f 45/63/105 46/64/106 47/65/107
f 47/65/107 46/64/106 48/66/108
s 4
f 42/60/109 48/67/110 44/62/111
f 44/62/111 48/67/110 46/68/112
s 5
f 47/69/113 41/59/114 45/70/115
f 45/70/115 41/59/114 43/61/116
g default
v -41.038559 -0.000000 35.457520
v 43.209099 -0.000000 35.457520
v -41.038559 -0.000000 -34.734009
v 43.209099 -0.000000 -34.734009
vt -4.168808 -3.208645
vt 5.168808 -3.208645
vt -4.168808 3.978324
vt 5.168808 3.978324
vn 0.000000 1.000000 0.000000
vn 0.000000 1.000000 0.000000
vn 0.000000 1.000000 0.000000
vn 0.000000 1.000000 0.000000
s 1
g polySurface23 chao chao
usemtl phong4SG
f 49/71/117 50/72/118 51/73/119
f 51/73/119 50/72/118 52/74/120
g default
v -0.758818 0.061854 -11.273869
v 0.108403 0.061854 -11.273869
v -0.758818 9.384478 -11.273869
v 0.108403 9.384478 -11.273869
v -0.758818 9.384478 -21.897324
v 0.108403 9.384478 -21.897324
v -0.758818 0.061854 -21.897324
v 0.108403 0.061854 -21.897324
vt -0.482798 -2.573395
vt 1.482798 -2.573395
vt -0.482798 -0.607798
vt 1.482798 -0.607798
vt -0.482798 1.357798
vt 1.482798 1.357798
vt -0.482798 3.323395
vt 1.482798 3.323395
vt 3.448395 -2.573395
vt 3.448395 -0.607798
vt -2.448395 -2.573395
vt -2.448395 -0.607798
vn 0.000000 0.000000 1.000000
vn 0.000000 0.000000 1.000000
vn 0.000000 0.000000 1.000000
vn 0.000000 0.000000 1.000000
vn 0.000000 1.000000 0.000000
vn 0.000000 1.000000 0.000000
vn 0.000000 1.000000 0.000000
vn 0.000000 1.000000 0.000000
vn 0.000000 0.000000 -1.000000
vn 0.000000 0.000000 -1.000000
vn 0.000000 0.000000 -1.000000
vn 0.000000 0.000000 -1.000000
vn 1.000000 0.000000 0.000000
vn 1.000000 0.000000 0.000000
vn 1.000000 0.000000 0.000000
vn 1.000000 0.000000 0.000000
vn -1.000000 0.000000 0.000000
vn -1.000000 0.000000 0.000000
vn -1.000000 0.000000 0.000000
vn -1.000000 0.000000 0.000000
s 1
g polySurface23 prd_1 prd_1
usemtl phong7SG
f 53/75/121 54/76/122 55/77/123
f 55/77/123 54/76/122 56/78/124
s 2
f 55/77/125 56/78/126 57/79/127
f 57/79/127 56/78/126 58/80/128
s 3
f 57/79/129 58/80/130 59/81/131
f 59/81/131 58/80/130 60/82/132
s 4
f 54/76/133 60/83/134 56/78/135
f 56/78/135 60/83/134 58/84/136
s 5
f 59/85/137 53/75/138 57/86/139
f 57/86/139 53/75/138 55/77/140
